Coordinates
version=1
nRows=29
nColumns=22
inDegrees=yes

Units are S.I. units (second, meters, Newtons, ...)
If the header above contains a line with 'inDegrees', this indicates whether rotational values are in degrees (yes) or radians (no).

endheader
time	pelvis_tilt	pelvis_list	pelvis_rotation	pelvis_tx	pelvis_ty	pelvis_tz	hip_flexion_r	hip_adduction_r	hip_rotation_r	knee_angle_r	ankle_angle_r	subtalar_angle_r	hip_flexion_l	hip_adduction_l	hip_rotation_l	knee_angle_l	ankle_angle_l	subtalar_angle_l	lumbar_extension	lumbar_bending	lumbar_rotation
      1.57000000	     -8.87201876	     -0.31885794	    -16.65465716	     -0.99713603	      0.86320177	     -0.37879528	     13.32810038	      2.69674977	      9.38540282	    -24.82822112	     24.25336357	     -9.24169312	     18.24954419	    -11.35255359	     -5.53642518	    -41.14203179	     19.73902151	      7.88086257	     -0.09083230	      1.91838894	     12.94171468
      1.58000000	     -8.49425176	     -0.41574462	    -16.36533779	     -0.99495355	      0.86318868	     -0.37794612	     12.72152602	      2.66985826	      9.14916768	    -24.85470257	     24.52035411	     -9.30170740	     19.70889954	    -11.37203753	     -4.77450475	    -44.36220356	     18.96814764	      7.84931773	     -0.79616496	      1.96473346	     12.83230501
      1.59000000	     -8.14120260	     -0.44008909	    -16.08911910	     -0.99266775	      0.86323211	     -0.37721019	     12.14754331	      2.56533202	      8.90553472	    -24.85727732	     24.77134126	     -9.36320366	     21.20635029	    -11.28396110	     -4.08820522	    -47.42341278	     18.23052507	      7.83811477	     -1.46519319	      1.93711188	     12.77057407
      1.60000000	     -7.81072117	     -0.38657364	    -15.83998062	     -0.99020227	      0.86337623	     -0.37654941	     11.57923855	      2.37587002	      8.67291095	    -24.79779548	     24.99857959	     -9.41098666	     22.69054900	    -11.08980012	     -3.52009216	    -50.21375200	     17.59102355	      7.85910591	     -2.08672998	      1.83136476	     12.74759698
      1.61000000	     -7.52957052	     -0.25452490	    -15.64112206	     -0.98754160	      0.86359829	     -0.37590238	     11.03903087	      2.11238956	      8.46819079	    -24.66610655	     25.19465499	     -9.44116429	     24.15918558	    -10.82119432	     -3.11632411	    -52.66287579	     17.10017985	      7.91171612	     -2.62641186	      1.65213950	     12.78105296
      1.62000000	     -7.31114676	     -0.05089026	    -15.49980550	     -0.98465158	      0.86389646	     -0.37523441	     10.52742158	      1.78567673	      8.30183649	    -24.44594929	     25.34811605	     -9.45026545	     25.60396961	    -10.51013427	     -2.90100511	    -54.71625028	     16.76502972	      7.98206222	     -3.06382622	      1.41064271	     12.88322127
      1.63000000	     -7.15629204	      0.20736541	    -15.42779345	     -0.98153155	      0.86427000	     -0.37449793	     10.03608077	      1.41758171	      8.18932199	    -24.12587281	     25.45350048	     -9.43844540	     27.01074850	    -10.20133271	     -2.89059630	    -56.34462476	     16.55449324	      8.04384517	     -3.39885968	      1.12186225	     13.05774604
      1.64000000	     -7.05547508	      0.49662474	    -15.42076000	     -0.97818467	      0.86472496	     -0.37367556	      9.54260539	      1.03044030	      8.13705284	    -23.69526575	     25.49780718	     -9.41073454	     28.36371307	     -9.93514533	     -3.07096036	    -57.53502064	     16.41620417	      8.06269811	     -3.64895439	      0.80817944	     13.30364469
      1.65000000	     -6.97966451	      0.77459250	    -15.46061146	     -0.97456730	      0.86529211	     -0.37275782	      8.97567636	      0.65796106	      8.14201054	    -23.10540731	     25.49175535	     -9.38360593	     29.61793310	     -9.74548387	     -3.38464122	    -58.28425832	     16.35540339	      8.04362981	     -3.85088958	      0.50365196	     13.61792812
      1.66000000	     -6.99417895	      1.07921213	    -15.56544675	     -0.97077696	      0.86579241	     -0.37173150	      8.49406454	      0.28202733	      8.15779775	    -22.49239309	     25.41114277	     -9.31300022	     30.87295573	     -9.65156982	     -3.88195651	    -58.63706206	     16.22698271	      7.81879020	     -3.92512010	      0.18751818	     14.00357590
      1.67000000	     -6.99425220	      1.34286848	    -15.69250968	     -0.96671927	      0.86638122	     -0.37064916	      7.89466680	     -0.06624347	      8.20069125	    -21.73219116	     25.33155789	     -9.19625270	     31.99045844	     -9.64178365	     -4.42813598	    -58.58826617	     16.12714741	      7.26471666	     -4.00588844	     -0.09692002	     14.43489869
      1.68000000	     -6.99399913	      1.56542602	    -15.82904764	     -0.96242402	      0.86699034	     -0.36952339	      7.21803209	     -0.38426124	      8.23164599	    -20.87079221	     25.17357262	     -9.08060905	     32.99970524	     -9.72206544	     -5.00113704	    -58.17387460	     15.94026250	      6.62885287	     -4.07839870	     -0.34379269	     14.88109129
      1.69000000	     -6.99559357	      1.75127410	    -15.96767979	     -0.95790803	      0.86755396	     -0.36838682	      6.48412518	     -0.67636856	      8.24284794	    -19.94143425	     24.98130416	     -8.93003013	     33.91204338	     -9.86742916	     -5.56101461	    -57.43261641	     15.68133877	      5.80108553	     -4.14400179	     -0.55795187	     15.33375978
      1.70000000	     -6.99489237	      1.89532267	    -16.09541154	     -0.95317672	      0.86802394	     -0.36729631	      5.69842869	     -0.94164564	      8.22082364	    -18.96720274	     24.77404630	     -8.74041489	     34.73080482	    -10.05717202	     -6.06436011	    -56.40078035	     15.35444743	      4.84510751	     -4.20954602	     -0.73054669	     15.79735100
      1.71000000	     -6.97349540	      1.98681811	    -16.21708180	     -0.94823207	      0.86838627	     -0.36624852	      4.84042742	     -1.17086558	      8.19418329	    -17.95485621	     24.58350144	     -8.52147532	     35.43464599	    -10.28525034	     -6.48706389	    -55.11259923	     14.99886363	      3.86706246	     -4.30360903	     -0.85504310	     16.26417256
      1.72000000	     -6.95527054	      2.04483810	    -16.30797617	     -0.94309152	      0.86855930	     -0.36530833	      3.96485768	     -1.37960741	      8.11377841	    -16.95258281	     24.40079157	     -8.26778676	     36.07233992	    -10.50859959	     -6.78758467	    -53.61132471	     14.59078985	      2.88775600	     -4.39579968	     -0.94394059	     16.69904302
      1.73000000	     -6.92228787	      2.04951641	    -16.38295206	     -0.93775538	      0.86855606	     -0.36446101	      3.05415744	     -1.54837220	      7.99173297	    -15.97230213	     24.20685121	     -8.01183206	     36.62377318	    -10.74764784	     -6.98006919	    -51.93448745	     14.14798647	      2.06343475	     -4.51590866	     -0.97901812	     17.12329246
      1.74000000	     -6.89861451	      2.04515054	    -16.42867101	     -0.93223877	      0.86829947	     -0.36375795	      2.15501446	     -1.71614847	      7.84933031	    -15.03483509	     24.10245290	     -7.72959961	     37.12816969	    -10.93260289	     -7.02550596	    -50.10197271	     13.70363778	      1.32767174	     -4.62581548	     -1.00072840	     17.51168728
      1.75000000	     -6.88587784	      2.01753727	    -16.46354307	     -0.92654263	      0.86778286	     -0.36317167	      1.27157392	     -1.86337085	      7.70687225	    -14.14965750	     24.07135440	     -7.44372442	     37.59250175	    -11.09932166	     -6.96259540	    -48.15965531	     13.26186430	      0.80070622	     -4.72800876	     -0.99018305	     17.88015751
      1.76000000	     -6.87411611	      1.97044612	    -16.49515417	     -0.92068120	      0.86703979	     -0.36267867	      0.40341148	     -1.99428577	      7.56545034	    -13.32884389	     24.07591962	     -7.16390678	     38.00536829	    -11.23982255	     -6.78823558	    -46.12301699	     12.81848631	      0.51012193	     -4.83522764	     -0.95845135	     18.23836907
      1.77000000	     -6.86263017	      1.91197656	    -16.52661191	     -0.91463236	      0.86607519	     -0.36225058	     -0.44976710	     -2.11587866	      7.41911016	    -12.57112391	     24.12627543	     -6.88672359	     38.36840894	    -11.35528484	     -6.52271131	    -44.01872272	     12.39093505	      0.45726680	     -4.94190332	     -0.91803100	     18.58631282
      1.78000000	     -6.85041581	      1.84623774	    -16.55384336	     -0.90838864	      0.86490083	     -0.36189492	     -1.28988066	     -2.23316924	      7.26979789	    -11.87361094	     24.22994902	     -6.61374837	     38.68528668	    -11.44304040	     -6.17287898	    -41.86948489	     11.99550694	      0.63953443	     -5.04519069	     -0.87319686	     18.91595682
      1.79000000	     -6.84391142	      1.78029522	    -16.57473352	     -0.90194310	      0.86352114	     -0.36160001	     -2.10735753	     -2.35055196	      7.11324492	    -11.23980507	     24.37524150	     -6.34566009	     38.96611143	    -11.50560988	     -5.74974666	    -39.69764608	     11.63579379	      1.03226509	     -5.13487541	     -0.83091715	     19.22581772
      1.80000000	     -6.84860596	      1.71685714	    -16.59210749	     -0.89531234	      0.86193977	     -0.36135538	     -2.89195632	     -2.46772853	      6.95724168	    -10.67416022	     24.57080374	     -6.07655774	     39.22116431	    -11.55386367	     -5.27233638	    -37.52570905	     11.31803582	      1.60067179	     -5.20502465	     -0.79338830	     19.51906376
      1.81000000	     -6.86877531	      1.65445929	    -16.60825573	     -0.88851510	      0.86016553	     -0.36114757	     -3.63370701	     -2.58025302	      6.80917774	    -10.18586600	     24.81371180	     -5.80992338	     39.46078348	    -11.60249488	     -4.76011602	    -35.37978977	     11.04157892	      2.27954911	     -5.25277911	     -0.75947180	     19.79945653
      1.82000000	     -6.89800225	      1.59281573	    -16.62019700	     -0.88155588	      0.85822130	     -0.36096120	     -4.33567203	     -2.68758643	      6.66080767	     -9.78321298	     25.08937801	     -5.56037270	     39.68574471	    -11.65909218	     -4.23517996	    -33.28796501	     10.80154387	      2.97003905	     -5.28571497	     -0.73551272	     20.06330939
      1.83000000	     -6.93021182	      1.52894496	    -16.64100614	     -0.87444802	      0.85612637	     -0.36079071	     -5.00049370	     -2.79076164	      6.53724668	     -9.46981062	     25.40624377	     -5.30600401	     39.90063053	    -11.74363605	     -3.74903390	    -31.29121815	     10.58627129	      3.64562626	     -5.31490326	     -0.71608878	     20.32133187
      1.84000000	     -6.95892086	      1.45861667	    -16.66638392	     -0.86718015	      0.85390513	     -0.36063337	     -5.64035199	     -2.88810265	      6.41583274	     -9.23882514	     25.75001944	     -5.07006373	     40.11882794	    -11.86246782	     -3.33584494	    -29.44128039	     10.35657176	      4.19634391	     -5.34787976	     -0.70223291	     20.58033480
      1.85000000	     -6.96137863	      1.36933642	    -16.71871355	     -0.85975126	      0.85160047	     -0.36044376	     -6.26818293	     -2.97431919	      6.34998031	     -9.11728964	     26.12543705	     -4.79830000	     40.31824278	    -12.04044405	     -3.04722999	    -27.77788476	     10.19816963	      4.67271378	     -5.41398403	     -0.68805275	     20.84305563
